<mxfile host="app.diagrams.net" modified="2022-11-06T13:36:33.929Z" agent="5.0 (Macintosh; Intel Mac OS X 10_15_7) AppleWebKit/537.36 (KHTML, like Gecko) Chrome/107.0.0.0 Safari/537.36" etag="kwDiH9-EgdYOQRPn_Gk2" version="20.5.2" type="github">
  <diagram name="Page-1" id="edf60f1a-56cd-e834-aa8a-f176f3a09ee4">
    <mxGraphModel dx="2036" dy="1056" grid="1" gridSize="10" guides="1" tooltips="1" connect="1" arrows="1" fold="1" page="1" pageScale="1" pageWidth="1100" pageHeight="850" background="none" math="0" shadow="0">
      <root>
        <mxCell id="0" />
        <mxCell id="1" parent="0" />
        <mxCell id="60e70716793133e9-31" style="edgeStyle=orthogonalEdgeStyle;rounded=0;html=1;labelBackgroundColor=none;startSize=5;endArrow=classicThin;endFill=1;endSize=5;jettySize=auto;orthogonalLoop=1;strokeWidth=1;fontFamily=Verdana;fontSize=8;exitX=0.5;exitY=1;exitDx=0;exitDy=0;startArrow=none;" parent="1" source="OoWEpa3Trh9tH26HNslA-6" target="60e70716793133e9-5" edge="1">
          <mxGeometry relative="1" as="geometry">
            <mxPoint x="460" y="180" as="sourcePoint" />
          </mxGeometry>
        </mxCell>
        <mxCell id="60e70716793133e9-4" value="&lt;font style=&quot;font-family: Helvetica; font-size: 12px;&quot;&gt;&lt;span style=&quot;font-family: Calibri; text-align: justify; background-color: initial;&quot;&gt;D&lt;/span&gt;&lt;span style=&quot;text-align: justify; background-color: initial; font-family: 宋体;&quot;&gt;&lt;font face=&quot;Calibri&quot;&gt;ash&lt;/font&gt;&lt;/span&gt;&lt;span style=&quot;font-family: Calibri; text-align: justify; background-color: initial;&quot;&gt;board&lt;/span&gt;&lt;/font&gt;&lt;span style=&quot;font-size: 12px; background-color: initial; font-family: Calibri; text-align: justify;&quot;&gt;看板&lt;/span&gt;" style="rounded=0;whiteSpace=wrap;html=1;shadow=1;labelBackgroundColor=none;strokeWidth=1;fontFamily=Verdana;fontSize=8;align=center;" parent="1" vertex="1">
          <mxGeometry x="510" y="90" width="90" height="30" as="geometry" />
        </mxCell>
        <mxCell id="60e70716793133e9-5" value="是否查询" style="rhombus;whiteSpace=wrap;html=1;rounded=0;shadow=1;labelBackgroundColor=none;strokeWidth=1;fontFamily=Verdana;fontSize=8;align=center;" parent="1" vertex="1">
          <mxGeometry x="500" y="240" width="100" height="60" as="geometry" />
        </mxCell>
        <mxCell id="60e70716793133e9-38" style="edgeStyle=orthogonalEdgeStyle;rounded=0;html=1;labelBackgroundColor=none;startSize=5;endArrow=classicThin;endFill=1;endSize=5;jettySize=auto;orthogonalLoop=1;strokeWidth=1;fontFamily=Verdana;fontSize=8" parent="1" edge="1">
          <mxGeometry relative="1" as="geometry">
            <mxPoint x="550" y="470" as="sourcePoint" />
            <mxPoint x="550" y="520" as="targetPoint" />
          </mxGeometry>
        </mxCell>
        <mxCell id="60e70716793133e9-41" style="edgeStyle=orthogonalEdgeStyle;rounded=0;html=1;labelBackgroundColor=none;startSize=5;endArrow=classicThin;endFill=1;endSize=5;jettySize=auto;orthogonalLoop=1;strokeWidth=1;fontFamily=Verdana;fontSize=8" parent="1" target="60e70716793133e9-13" edge="1">
          <mxGeometry relative="1" as="geometry">
            <mxPoint x="550" y="560" as="sourcePoint" />
            <Array as="points">
              <mxPoint x="550" y="550" />
            </Array>
          </mxGeometry>
        </mxCell>
        <mxCell id="60e70716793133e9-12" value="查询当月&lt;br&gt;最新图表数据" style="whiteSpace=wrap;html=1;rounded=0;shadow=1;labelBackgroundColor=none;strokeWidth=1;fontFamily=Verdana;fontSize=8;align=center;spacing=6;" parent="1" vertex="1">
          <mxGeometry x="370" y="535" width="95" height="30" as="geometry" />
        </mxCell>
        <mxCell id="60e70716793133e9-13" value="查询对应&lt;br&gt;月份数据" style="whiteSpace=wrap;html=1;rounded=0;shadow=1;labelBackgroundColor=none;strokeWidth=1;fontFamily=Verdana;fontSize=8;align=center;" parent="1" vertex="1">
          <mxGeometry x="505" y="620" width="90" height="30" as="geometry" />
        </mxCell>
        <mxCell id="60e70716793133e9-51" value="Yes" style="edgeStyle=orthogonalEdgeStyle;rounded=0;html=1;labelBackgroundColor=none;startSize=5;endArrow=classicThin;endFill=1;endSize=5;jettySize=auto;orthogonalLoop=1;strokeWidth=1;fontFamily=Verdana;fontSize=8" parent="1" edge="1">
          <mxGeometry x="-0.6924" y="-20" relative="1" as="geometry">
            <Array as="points">
              <mxPoint x="260" y="1069.9999999999998" />
              <mxPoint x="260" y="870" />
            </Array>
            <mxPoint as="offset" />
            <mxPoint x="290" y="870" as="targetPoint" />
          </mxGeometry>
        </mxCell>
        <mxCell id="OoWEpa3Trh9tH26HNslA-2" value="开始" style="rounded=1;whiteSpace=wrap;html=1;shadow=1;labelBackgroundColor=none;strokeWidth=1;fontFamily=Verdana;fontSize=8;align=center;" parent="1" vertex="1">
          <mxGeometry x="500" y="20" width="100" height="40" as="geometry" />
        </mxCell>
        <mxCell id="OoWEpa3Trh9tH26HNslA-3" style="edgeStyle=orthogonalEdgeStyle;rounded=0;html=1;labelBackgroundColor=none;startSize=5;endArrow=classicThin;endFill=1;endSize=5;jettySize=auto;orthogonalLoop=1;strokeWidth=1;fontFamily=Verdana;fontSize=8;exitX=0.5;exitY=1;exitDx=0;exitDy=0;entryX=0.5;entryY=0;entryDx=0;entryDy=0;" parent="1" target="60e70716793133e9-4" edge="1">
          <mxGeometry relative="1" as="geometry">
            <mxPoint x="549.5" y="60" as="sourcePoint" />
            <mxPoint x="549.5" y="90" as="targetPoint" />
          </mxGeometry>
        </mxCell>
        <mxCell id="OoWEpa3Trh9tH26HNslA-5" value="&lt;span style=&quot;font-family: Calibri; font-size: 12px; text-align: justify;&quot;&gt;CDP数据资产总览&lt;/span&gt;" style="rounded=0;whiteSpace=wrap;html=1;shadow=1;labelBackgroundColor=none;strokeWidth=1;fontFamily=Verdana;fontSize=8;align=center;" parent="1" vertex="1">
          <mxGeometry x="310" y="170" width="100" height="30" as="geometry" />
        </mxCell>
        <mxCell id="OoWEpa3Trh9tH26HNslA-7" value="&lt;span style=&quot;font-family: Calibri; font-size: 12px; text-align: justify;&quot;&gt;微信生态人群看板&lt;/span&gt;" style="rounded=0;whiteSpace=wrap;html=1;shadow=1;labelBackgroundColor=none;strokeWidth=1;fontFamily=Verdana;fontSize=8;align=center;" parent="1" vertex="1">
          <mxGeometry x="570" y="170" width="100" height="30" as="geometry" />
        </mxCell>
        <mxCell id="OoWEpa3Trh9tH26HNslA-9" style="edgeStyle=elbowEdgeStyle;rounded=0;html=1;labelBackgroundColor=none;startSize=5;endArrow=classicThin;endFill=1;endSize=5;jettySize=auto;orthogonalLoop=1;strokeWidth=1;fontFamily=Verdana;fontSize=8;exitX=0.5;exitY=1;exitDx=0;exitDy=0;startArrow=none;entryX=0.5;entryY=0;entryDx=0;entryDy=0;elbow=vertical;" parent="1" target="60e70716793133e9-5" edge="1" source="OoWEpa3Trh9tH26HNslA-5">
          <mxGeometry relative="1" as="geometry">
            <mxPoint x="424.5" y="200" as="sourcePoint" />
            <mxPoint x="424.5" y="220" as="targetPoint" />
          </mxGeometry>
        </mxCell>
        <mxCell id="OoWEpa3Trh9tH26HNslA-11" style="edgeStyle=elbowEdgeStyle;rounded=0;html=1;labelBackgroundColor=none;startSize=5;endArrow=classicThin;endFill=1;endSize=5;jettySize=auto;orthogonalLoop=1;strokeWidth=1;fontFamily=Verdana;fontSize=8;exitX=0.5;exitY=1;exitDx=0;exitDy=0;startArrow=none;elbow=vertical;" parent="1" edge="1" source="OoWEpa3Trh9tH26HNslA-7">
          <mxGeometry relative="1" as="geometry">
            <mxPoint x="677.25" y="200" as="sourcePoint" />
            <mxPoint x="550" y="240" as="targetPoint" />
          </mxGeometry>
        </mxCell>
        <mxCell id="OoWEpa3Trh9tH26HNslA-12" value="" style="edgeStyle=orthogonalEdgeStyle;rounded=0;html=1;labelBackgroundColor=none;startSize=5;endArrow=none;endFill=1;endSize=5;jettySize=auto;orthogonalLoop=1;strokeWidth=1;fontFamily=Verdana;fontSize=8;exitX=0.5;exitY=1;exitDx=0;exitDy=0;startArrow=none;" parent="1" source="OoWEpa3Trh9tH26HNslA-6" edge="1">
          <mxGeometry relative="1" as="geometry">
            <mxPoint x="500" y="160" as="sourcePoint" />
            <mxPoint x="500" y="180" as="targetPoint" />
          </mxGeometry>
        </mxCell>
        <mxCell id="OoWEpa3Trh9tH26HNslA-6" value="&lt;span style=&quot;font-family: Calibri; font-size: 12px; text-align: justify;&quot;&gt;媒介资产看板&lt;/span&gt;" style="rounded=0;whiteSpace=wrap;html=1;shadow=1;labelBackgroundColor=none;strokeWidth=1;fontFamily=Verdana;fontSize=8;align=center;" parent="1" vertex="1">
          <mxGeometry x="445" y="170" width="90" height="30" as="geometry" />
        </mxCell>
        <mxCell id="OoWEpa3Trh9tH26HNslA-14" value="" style="edgeStyle=elbowEdgeStyle;rounded=0;html=1;labelBackgroundColor=none;startSize=5;endArrow=classicThin;endFill=1;endSize=5;jettySize=auto;orthogonalLoop=1;strokeWidth=1;fontFamily=Verdana;fontSize=8;exitX=0.5;exitY=1;exitDx=0;exitDy=0;elbow=vertical;" parent="1" source="60e70716793133e9-4" edge="1">
          <mxGeometry x="-0.6667" y="10" relative="1" as="geometry">
            <mxPoint as="offset" />
            <mxPoint x="560" y="169" as="sourcePoint" />
            <mxPoint x="620" y="169" as="targetPoint" />
            <Array as="points">
              <mxPoint x="570" y="140" />
            </Array>
          </mxGeometry>
        </mxCell>
        <mxCell id="OoWEpa3Trh9tH26HNslA-18" value="否" style="text;html=1;align=center;verticalAlign=middle;resizable=0;points=[];autosize=1;strokeColor=none;fillColor=none;" parent="1" vertex="1">
          <mxGeometry x="540" y="300" width="40" height="30" as="geometry" />
        </mxCell>
        <mxCell id="OoWEpa3Trh9tH26HNslA-19" value="是否查询" style="rhombus;whiteSpace=wrap;html=1;rounded=0;shadow=1;labelBackgroundColor=none;strokeWidth=1;fontFamily=Verdana;fontSize=8;align=center;" parent="1" vertex="1">
          <mxGeometry x="500" y="520" width="100" height="60" as="geometry" />
        </mxCell>
        <mxCell id="OoWEpa3Trh9tH26HNslA-26" value="" style="edgeStyle=orthogonalEdgeStyle;rounded=0;orthogonalLoop=1;jettySize=auto;html=1;entryX=0.5;entryY=0;entryDx=0;entryDy=0;" parent="1" source="OoWEpa3Trh9tH26HNslA-24" target="CmyRqw-2zFbsB-W_aQww-112" edge="1">
          <mxGeometry relative="1" as="geometry">
            <mxPoint x="550" y="430" as="targetPoint" />
          </mxGeometry>
        </mxCell>
        <mxCell id="OoWEpa3Trh9tH26HNslA-24" value="是否以过当&lt;br&gt;月第一周周末" style="rhombus;whiteSpace=wrap;html=1;rounded=0;shadow=1;labelBackgroundColor=none;strokeWidth=1;fontFamily=Verdana;fontSize=8;align=center;" parent="1" vertex="1">
          <mxGeometry x="495" y="330" width="110" height="70" as="geometry" />
        </mxCell>
        <mxCell id="OoWEpa3Trh9tH26HNslA-28" value="" style="endArrow=classic;html=1;rounded=0;edgeStyle=elbowEdgeStyle;elbow=horizontal;exitX=0.5;exitY=1;exitDx=0;exitDy=0;entryX=0.5;entryY=0;entryDx=0;entryDy=0;" parent="1" source="60e70716793133e9-5" target="OoWEpa3Trh9tH26HNslA-24" edge="1">
          <mxGeometry width="50" height="50" relative="1" as="geometry">
            <mxPoint x="750" y="470" as="sourcePoint" />
            <mxPoint x="800" y="330" as="targetPoint" />
            <Array as="points">
              <mxPoint x="550" y="330" />
            </Array>
          </mxGeometry>
        </mxCell>
        <mxCell id="OoWEpa3Trh9tH26HNslA-29" value="否" style="text;html=1;align=center;verticalAlign=middle;resizable=0;points=[];autosize=1;strokeColor=none;fillColor=none;" parent="1" vertex="1">
          <mxGeometry x="540" y="400" width="40" height="30" as="geometry" />
        </mxCell>
        <mxCell id="OoWEpa3Trh9tH26HNslA-30" value="" style="edgeStyle=elbowEdgeStyle;rounded=0;orthogonalLoop=1;jettySize=auto;html=1;exitX=0;exitY=0.5;exitDx=0;exitDy=0;entryX=0.5;entryY=0;entryDx=0;entryDy=0;elbow=vertical;" parent="1" target="60e70716793133e9-12" edge="1" source="OoWEpa3Trh9tH26HNslA-24">
          <mxGeometry relative="1" as="geometry">
            <mxPoint x="500" y="359.5" as="sourcePoint" />
            <mxPoint x="440" y="359.5" as="targetPoint" />
            <Array as="points">
              <mxPoint x="460" y="365" />
            </Array>
          </mxGeometry>
        </mxCell>
        <mxCell id="OoWEpa3Trh9tH26HNslA-31" value="是" style="text;html=1;align=center;verticalAlign=middle;resizable=0;points=[];autosize=1;strokeColor=none;fillColor=none;" parent="1" vertex="1">
          <mxGeometry x="660" y="240" width="40" height="30" as="geometry" />
        </mxCell>
        <mxCell id="OoWEpa3Trh9tH26HNslA-32" value="是" style="text;html=1;align=center;verticalAlign=middle;resizable=0;points=[];autosize=1;strokeColor=none;fillColor=none;" parent="1" vertex="1">
          <mxGeometry x="540" y="580" width="40" height="30" as="geometry" />
        </mxCell>
        <mxCell id="OoWEpa3Trh9tH26HNslA-38" value="" style="edgeStyle=orthogonalEdgeStyle;rounded=0;orthogonalLoop=1;jettySize=auto;html=1;exitX=1;exitY=0.5;exitDx=0;exitDy=0;entryX=1;entryY=0.5;entryDx=0;entryDy=0;" parent="1" source="OoWEpa3Trh9tH26HNslA-19" target="CmyRqw-2zFbsB-W_aQww-112" edge="1">
          <mxGeometry relative="1" as="geometry">
            <mxPoint x="620" y="510" as="sourcePoint" />
            <mxPoint x="700" y="620" as="targetPoint" />
          </mxGeometry>
        </mxCell>
        <mxCell id="OoWEpa3Trh9tH26HNslA-39" value="否" style="text;html=1;align=center;verticalAlign=middle;resizable=0;points=[];autosize=1;strokeColor=none;fillColor=none;" parent="1" vertex="1">
          <mxGeometry x="610" y="480" width="40" height="30" as="geometry" />
        </mxCell>
        <mxCell id="OoWEpa3Trh9tH26HNslA-41" value="是" style="text;html=1;align=center;verticalAlign=middle;resizable=0;points=[];autosize=1;strokeColor=none;fillColor=none;" parent="1" vertex="1">
          <mxGeometry x="440" y="340" width="40" height="30" as="geometry" />
        </mxCell>
        <mxCell id="OoWEpa3Trh9tH26HNslA-44" value="展示图表数据" style="rounded=0;whiteSpace=wrap;html=1;shadow=1;labelBackgroundColor=none;strokeWidth=1;fontFamily=Verdana;fontSize=8;align=center;" parent="1" vertex="1">
          <mxGeometry x="505" y="690" width="90" height="30" as="geometry" />
        </mxCell>
        <mxCell id="OoWEpa3Trh9tH26HNslA-45" value="" style="edgeStyle=orthogonalEdgeStyle;rounded=0;orthogonalLoop=1;jettySize=auto;html=1;entryX=0;entryY=0.5;entryDx=0;entryDy=0;" parent="1" target="OoWEpa3Trh9tH26HNslA-44" edge="1">
          <mxGeometry relative="1" as="geometry">
            <mxPoint x="417.5" y="565" as="sourcePoint" />
            <mxPoint x="417" y="740.5" as="targetPoint" />
            <Array as="points">
              <mxPoint x="418" y="705" />
            </Array>
          </mxGeometry>
        </mxCell>
        <mxCell id="OoWEpa3Trh9tH26HNslA-46" value="" style="edgeStyle=orthogonalEdgeStyle;rounded=0;orthogonalLoop=1;jettySize=auto;html=1;entryX=0.5;entryY=0;entryDx=0;entryDy=0;" parent="1" target="OoWEpa3Trh9tH26HNslA-44" edge="1">
          <mxGeometry relative="1" as="geometry">
            <mxPoint x="549.5" y="650" as="sourcePoint" />
            <mxPoint x="550" y="795" as="targetPoint" />
            <Array as="points" />
          </mxGeometry>
        </mxCell>
        <mxCell id="OoWEpa3Trh9tH26HNslA-47" value="" style="edgeStyle=elbowEdgeStyle;rounded=0;orthogonalLoop=1;jettySize=auto;html=1;exitX=1;exitY=0.5;exitDx=0;exitDy=0;entryX=1;entryY=0.5;entryDx=0;entryDy=0;" parent="1" source="60e70716793133e9-5" edge="1" target="60e70716793133e9-13">
          <mxGeometry relative="1" as="geometry">
            <mxPoint x="755" y="285" as="sourcePoint" />
            <mxPoint x="600" y="780" as="targetPoint" />
            <Array as="points">
              <mxPoint x="760" y="460" />
            </Array>
          </mxGeometry>
        </mxCell>
        <mxCell id="OoWEpa3Trh9tH26HNslA-48" value="结束" style="rounded=1;whiteSpace=wrap;html=1;shadow=1;labelBackgroundColor=none;strokeWidth=1;fontFamily=Verdana;fontSize=8;align=center;" parent="1" vertex="1">
          <mxGeometry x="500" y="760" width="100" height="40" as="geometry" />
        </mxCell>
        <mxCell id="OoWEpa3Trh9tH26HNslA-49" value="" style="edgeStyle=orthogonalEdgeStyle;rounded=0;orthogonalLoop=1;jettySize=auto;html=1;entryX=0.5;entryY=0;entryDx=0;entryDy=0;" parent="1" target="OoWEpa3Trh9tH26HNslA-48" edge="1">
          <mxGeometry relative="1" as="geometry">
            <mxPoint x="549.5" y="720" as="sourcePoint" />
            <mxPoint x="550" y="865" as="targetPoint" />
            <Array as="points" />
          </mxGeometry>
        </mxCell>
        <mxCell id="CmyRqw-2zFbsB-W_aQww-106" value="&lt;span style=&quot;font-family: Calibri; font-size: 12px; text-align: justify;&quot;&gt;微信生态人群看板&lt;/span&gt;" style="rounded=0;whiteSpace=wrap;html=1;shadow=1;labelBackgroundColor=none;strokeWidth=1;fontFamily=Verdana;fontSize=8;align=center;" vertex="1" parent="1">
          <mxGeometry x="710" y="170" width="100" height="30" as="geometry" />
        </mxCell>
        <mxCell id="CmyRqw-2zFbsB-W_aQww-107" value="" style="edgeStyle=elbowEdgeStyle;rounded=0;html=1;labelBackgroundColor=none;startSize=5;endArrow=classicThin;endFill=1;endSize=5;jettySize=auto;orthogonalLoop=1;strokeWidth=1;fontFamily=Verdana;fontSize=8;exitX=0.5;exitY=1;exitDx=0;exitDy=0;elbow=vertical;" edge="1" parent="1" source="60e70716793133e9-4">
          <mxGeometry x="-0.6667" y="10" relative="1" as="geometry">
            <mxPoint as="offset" />
            <mxPoint x="630" y="120" as="sourcePoint" />
            <mxPoint x="760" y="169" as="targetPoint" />
            <Array as="points">
              <mxPoint x="570" y="140" />
            </Array>
          </mxGeometry>
        </mxCell>
        <mxCell id="CmyRqw-2zFbsB-W_aQww-108" value="" style="endArrow=classic;html=1;rounded=0;elbow=vertical;entryX=0.5;entryY=0;entryDx=0;entryDy=0;exitX=0.5;exitY=1;exitDx=0;exitDy=0;edgeStyle=elbowEdgeStyle;" edge="1" parent="1" source="60e70716793133e9-4" target="OoWEpa3Trh9tH26HNslA-6">
          <mxGeometry width="50" height="50" relative="1" as="geometry">
            <mxPoint x="500" y="220" as="sourcePoint" />
            <mxPoint x="550" y="170" as="targetPoint" />
            <Array as="points">
              <mxPoint x="520" y="140" />
            </Array>
          </mxGeometry>
        </mxCell>
        <mxCell id="CmyRqw-2zFbsB-W_aQww-109" value="" style="endArrow=classic;html=1;rounded=0;elbow=vertical;entryX=0.478;entryY=0.02;entryDx=0;entryDy=0;entryPerimeter=0;exitX=0.5;exitY=1;exitDx=0;exitDy=0;edgeStyle=elbowEdgeStyle;" edge="1" parent="1" source="60e70716793133e9-4" target="OoWEpa3Trh9tH26HNslA-5">
          <mxGeometry width="50" height="50" relative="1" as="geometry">
            <mxPoint x="500" y="220" as="sourcePoint" />
            <mxPoint x="550" y="170" as="targetPoint" />
            <Array as="points">
              <mxPoint x="520" y="140" />
            </Array>
          </mxGeometry>
        </mxCell>
        <mxCell id="CmyRqw-2zFbsB-W_aQww-111" value="" style="endArrow=classic;html=1;rounded=0;elbow=vertical;entryX=0.5;entryY=0;entryDx=0;entryDy=0;exitX=0.5;exitY=1;exitDx=0;exitDy=0;edgeStyle=elbowEdgeStyle;" edge="1" parent="1" source="CmyRqw-2zFbsB-W_aQww-106" target="60e70716793133e9-5">
          <mxGeometry width="50" height="50" relative="1" as="geometry">
            <mxPoint x="560" y="170" as="sourcePoint" />
            <mxPoint x="610" y="120" as="targetPoint" />
          </mxGeometry>
        </mxCell>
        <mxCell id="CmyRqw-2zFbsB-W_aQww-112" value="查询上月&lt;br&gt;最新图表数据" style="rounded=0;whiteSpace=wrap;html=1;shadow=1;labelBackgroundColor=none;strokeWidth=1;fontFamily=Verdana;fontSize=8;align=center;" vertex="1" parent="1">
          <mxGeometry x="505" y="440" width="90" height="30" as="geometry" />
        </mxCell>
      </root>
    </mxGraphModel>
  </diagram>
</mxfile>
